# xmcd
#
# Track frame offsets:
#	150
#	24477
#	57563
#	81200
#	105728
#	118715
#	132080
#	162161
#	177626
#	195962
#	213464
#	232821
#	252919
#	272683
#	295186
#	316744
#	336494
#
# Disc length: 4750 seconds
#
# Revision: 1
# Processed by: cddbd v1.5.2PL0 Copyright (c) Steve Scherf et al.
# Submitted via: audiograbber 1.83.01
#
DISCID=f3128c11
DTITLE=Michael Martin Murphy - Austinology - Alleys of Austin
DYEAR=2018
DGENRE=Country
TTITLE0=Lyle Lovett - Alleys of Austin
TTITLE1=Michael Martin Murphey - South Canadian River Song
TTITLE2=Amy Grant - Wildfire
TTITLE3=Steve Earle - Geronimo's Cadillac
TTITLE4=Michael Martin Murphey - Texas Trilogy - Daybreak
TTITLE5=Michael Martin Murphey - Texas Trilogy - Trainride
TTITLE6=Michael Martin Murphey - Texas Trilogy - Bosque County Romance
TTITLE7=Randy Rogers - Backslider's Wine
TTITLE8=The Last Bandoleros - La Freeway
TTITLE9=Michael Martin Murphey - Texas Morning
TTITLE10=Bob Livingston - Cosmic Cowboy
TTITLE11=Bruce Robison - Little Bird
TTITLE12=Michael Martin Murphey - Quicksilver Daydream of Maria
TTITLE13=Lyle Lovett - Drunken Lady of the Morning
TTITLE14=Michael Martin Murphey - Gringo Pistolero
TTITLE15=Michael Martin Murphey - Outlaw Medley
TTITLE16=Michael Martin Murphey - Honolulu
EXTD=
EXTT0=
EXTT1=
EXTT2=
EXTT3=
EXTT4=
EXTT5=
EXTT6=
EXTT7=
EXTT8=
EXTT9=
EXTT10=
EXTT11=
EXTT12=
EXTT13=
EXTT14=
EXTT15=
EXTT16=
PLAYORDER=
